<svg width="828" height="1167" viewBox="0 0 828 1167" fill="none" xmlns="http://www.w3.org/2000/svg">
<path d="M780.689 365.623C750.484 294.331 707.25 230.311 652.188 175.341C597.127 120.371 533 77.2085 461.589 47.0543C387.651 15.8309 309.116 2.70238e-05 228.174 1.99476e-05C188.138 1.64476e-05 148.109 3.96436 109.191 11.7868C94.7842 14.682 85.4587 28.6867 88.3588 43.0699C90.8997 55.6802 102.001 64.3924 114.413 64.3924C116.156 64.3924 117.918 64.2198 119.694 63.8678C155.16 56.736 191.657 53.1236 228.174 53.1236C529.481 53.1236 774.609 297.844 774.609 598.65C774.609 700.966 734.601 796.92 661.933 869.009C589.923 940.46 494.407 979.798 392.832 979.798C383.4 979.798 374.022 979.459 364.703 978.782C375.651 961.225 385.229 942.784 393.377 923.553C414.144 874.54 424.673 822.492 424.673 768.858C424.673 715.223 404.173 666.887 366.944 629.72C329.716 592.554 280.222 572.088 227.575 572.088C174.928 572.088 125.434 592.554 88.2058 629.72C50.9772 666.887 30.4772 716.298 30.4772 768.858C30.4772 821.417 49.7866 868.776 84.8401 905.319C84.9066 905.385 84.9731 905.452 85.0463 905.518C85.1128 905.584 85.1726 905.657 85.2458 905.724C126.765 947.173 175.181 979.267 229.158 1001.12C241.869 1006.27 254.76 1010.79 267.803 1014.69C205.572 1075.56 120.399 1113.14 26.606 1113.14C11.9128 1113.14 -9.83539e-05 1125.04 -9.96363e-05 1139.71C-0.000100919 1154.38 11.9128 1166.27 26.606 1166.27C80.337 1166.27 132.472 1155.76 181.56 1135.03C228.965 1115.01 271.535 1086.36 308.085 1049.87C315.109 1042.86 321.84 1035.62 328.279 1028.17C349.531 1031.33 371.075 1032.92 392.832 1032.92C449.317 1032.92 504.385 1022.22 556.506 1001.12C609.512 979.659 657.157 948.316 698.17 907.942C698.25 907.869 698.33 907.796 698.403 907.723C698.749 907.377 699.095 907.032 699.441 906.687C699.767 906.361 700.092 906.043 700.418 905.724C700.492 905.651 700.551 905.578 700.625 905.505C740.108 866.047 771.204 820.142 793.067 769.017C816.135 715.077 827.828 657.756 827.828 598.643C827.828 517.835 811.971 439.438 780.696 365.616L780.689 365.623ZM123.106 868.398C97.6842 841.816 83.6894 806.476 83.6894 768.858C83.6894 689.65 148.236 625.211 227.575 625.211C306.914 625.211 371.461 689.65 371.461 768.858C371.461 843.895 347.289 913.394 306.316 970.017C237.492 954.173 174.323 919.436 123.106 868.391L123.106 868.398Z" fill="#4C32E8"/>
</svg>
