<svg width="330" height="541" viewBox="0 0 330 541" fill="none" xmlns="http://www.w3.org/2000/svg">
<g clip-path="url(#clip0_16_2557)">
<path d="M326.748 469.931C325.232 492.982 305.668 510.572 282.633 508.901C281.795 508.825 281.236 508.141 281.118 507.508C261.596 526.094 230.891 531.471 206.104 518.692C180.114 550.259 127.34 548.385 103.78 512.724C75.9955 530.441 22.4588 523.072 24.5752 488.804C23.8556 488.686 22.9752 488.483 22.0609 488.247C21.8239 488.289 21.5784 488.365 21.3413 488.289C-16.3815 477.106 13.917 413.017 42.1837 427.552C48.9308 406.974 71.5256 391.925 92.8082 401.201C80.55 342.97 175.407 321.869 195.928 365.692C196.047 365.489 196.208 365.337 196.445 365.21C235.446 345.586 267.988 376.436 271.696 414.57C282.913 420.58 291.497 431.173 295.171 443.943C312.221 439.807 328.068 449.995 326.748 469.931Z" fill="#F2F2F2"/>
<path d="M41.1593 424.943C12.3169 405.387 -20.7837 472.801 17.9804 484.288C19.3519 484.693 20.3593 482.938 19.1571 482.051C5.52747 471.965 0.101002 459.583 8.26188 443.546C14.1116 432.05 26.6069 421.213 40.1773 426.826C41.3032 427.29 42.1667 425.627 41.1678 424.952L41.1593 424.943Z" fill="#3A3A3A"/>
<path d="M39.2545 435.95C41.3794 423.332 46.1794 411.861 57.117 404.366C67.7583 397.073 79.0684 397.748 91.0812 400.433C92.224 400.686 92.9013 398.82 91.8769 398.272C65.9551 384.531 36.8418 408.721 36.7402 435.714C36.7402 437.334 38.9836 437.562 39.263 435.95H39.2545Z" fill="#3A3A3A"/>
<path d="M92.4527 399.023C88.8633 367.962 111.517 345.612 141.596 341.687C177.752 336.969 194.354 361.783 190.798 395.022C190.569 397.132 194.04 398.052 194.548 395.874C214.409 310.018 71.695 327.726 89.9384 399.462C90.3448 401.048 92.6389 400.66 92.4527 399.023Z" fill="#3A3A3A"/>
<path d="M83.9023 419.913C91.0642 405.716 103.153 402.129 117.562 398.711C119.001 398.365 119.077 396.086 117.452 396.001C102.01 395.14 87.17 404.847 81.6843 419.094C81.1255 420.546 83.2335 421.23 83.9023 419.913Z" fill="#3A3A3A"/>
<path d="M180.131 400.77C192.948 399.496 205.173 401.851 215.907 409.185C225.922 416.022 230.654 425.247 236.961 435.14C237.782 436.423 240.059 436.009 239.712 434.262C234.76 409.092 203.412 392.743 179.649 398.052C177.896 398.441 178.362 400.947 180.131 400.77Z" fill="#3A3A3A"/>
<path d="M224.127 413.836C260.445 397.124 298.582 426.893 287.916 466.091C287.213 468.674 291.15 470.134 291.844 467.543C303.027 426.125 262.223 390.144 222.984 411.447C221.494 412.258 222.561 414.553 224.119 413.836H224.127Z" fill="#3A3A3A"/>
<path d="M194.176 363.556C233.075 347.215 263.348 377.584 264.297 415.895C264.364 418.706 268.766 419.153 268.707 416.309C267.878 375.66 234.049 340.606 193.067 361.235C191.585 361.978 192.644 364.197 194.176 363.556Z" fill="#3A3A3A"/>
<path d="M18.3191 484.145C19.6736 484.145 19.8853 482.043 18.5223 482.043C17.1593 482.043 16.9562 484.145 18.3191 484.145Z" fill="#3A3A3A"/>
<path d="M22.9751 475.544C7.6523 524.676 92.351 530.491 112.474 496.839C113.21 495.598 111.593 493.8 110.459 495.007C96.9902 509.331 78.8398 516.134 59.1318 513.948C37.9 511.593 21.4682 499.025 26.0905 476.253C26.4545 474.463 23.5084 473.813 22.9666 475.544H22.9751Z" fill="#3A3A3A"/>
<path d="M97.5912 504.048C122.404 549.609 191.441 547.896 211.97 499.456C212.842 497.405 209.566 495.624 208.457 497.624C184.254 541.143 127.991 545.271 99.6991 502.697C98.9118 501.507 96.9139 502.807 97.5912 504.056V504.048Z" fill="#3A3A3A"/>
<path d="M200.491 513.552C231.535 531.26 273.135 519.173 289.702 487.758C290.887 485.521 287.721 483.158 286.383 485.445C268.309 516.32 233.846 524.33 201.676 511.298C200.347 510.758 199.204 512.817 200.491 513.552Z" fill="#3A3A3A"/>
<path d="M279.298 504.909C302.299 506.58 321.897 488.981 323.412 465.947C324.919 443.074 303.806 433.029 284.25 442.736C282.608 443.555 283.361 446.298 285.258 445.884C294.316 443.926 304.822 440.491 312.788 447.218C318.756 452.257 319.89 460.74 318.9 468.066C316.233 487.884 299.412 502.174 279.535 502.275C277.859 502.284 277.554 504.782 279.281 504.909H279.298Z" fill="#3A3A3A"/>
<path d="M316.546 332.774C317.427 334.167 315.547 336.074 314.108 334.96C308.436 330.622 302.891 325.608 297.702 320.51C297.219 320.468 296.821 320.231 296.584 319.717C296.542 319.556 296.466 319.396 296.381 319.235C296.102 318.957 295.823 318.678 295.543 318.4C294.942 317.801 294.942 317.083 295.221 316.45C287.281 297.425 278.857 281.422 261.85 268.686C254.222 276.966 246.045 284.368 237.418 290.698C237.376 290.74 237.418 290.74 237.418 290.774C231.551 324.367 213.384 360.788 196.656 390.203C196.538 390.439 196.334 390.557 196.097 390.642V391.401C196.021 392.355 194.421 392.794 194.066 391.756C192.83 387.772 192.313 383.476 190.231 379.813C182.688 393.782 174.222 407.675 162.887 418.858C162.489 419.255 161.845 419.255 161.371 419.061C161.532 420.453 161.608 421.804 161.769 423.197C162.006 425.222 158.857 425.788 158.611 423.754C155.098 395.217 156.377 365.16 166.518 338.016C164.766 339.45 162.963 340.843 161.168 342.278C160.33 342.995 158.815 342.32 158.976 341.122C160.609 329.018 164.402 316.762 169.312 304.861C174.18 293.003 180.207 281.54 186.362 271.066C185.041 260.481 184.364 249.813 184.364 239.144C171.513 238.865 161.007 239.625 148.512 243.879C139.208 247.103 130.463 251.239 121.684 255.544C121.524 256.177 121.049 256.7 120.211 256.776C119.813 256.776 119.416 256.818 119.018 256.852C118.857 256.894 118.738 256.97 118.578 257.055C118.095 257.291 117.663 257.173 117.257 256.936C110.154 257.418 102.688 257.536 95.6949 256.979C93.9002 256.86 93.6547 254.193 95.297 253.712C109.147 215.663 151.949 176.971 192.626 170.405C192.863 170.363 192.982 170.447 193.143 170.447C195.894 159.66 199.289 149.076 203.285 138.719C220.775 93.6978 254.823 45.0217 302.536 28.3433C303.171 24.9587 304.254 21.6585 305.49 18.4342C304.576 17.8012 303.738 16.9234 303.137 15.843C300.902 11.9435 302.299 7.00582 306.21 4.77754C310.121 2.59146 315.073 3.98414 317.308 7.88363C319.501 11.7831 318.104 16.7208 314.193 18.9069C312.754 19.7425 311.162 20.0632 309.605 19.9451C308.487 22.8486 307.607 25.7943 306.811 28.7822C307.166 28.74 307.573 28.8582 307.886 29.2633C336.872 65.7261 332.123 125.189 319.145 166.59C314.913 180.12 309.241 194.258 302.417 208.142C328.085 240.824 331.361 294.792 316.546 332.766V332.774Z" fill="#F2F2F2"/>
<path d="M187.031 273.817C181.663 229.927 187.996 183.698 203.293 142.331C211.683 119.643 223.137 98.0274 238.222 79.0448C256.474 56.0868 278.519 42.4132 303.255 27.5242C305.44 26.2075 304.026 23.1521 301.605 23.9539C253.029 40.0752 218.379 89.435 200.711 134.988C183.661 178.938 177.515 227.605 184.728 274.222C184.957 275.708 187.208 275.294 187.022 273.817H187.031Z" fill="#3A3A3A"/>
<path d="M302.967 26.9924C311.966 52.6514 321.329 74.4616 321.092 102.383C320.889 125.687 315.894 148.797 307.928 170.641C290.802 217.603 260.639 250.673 228.563 287.566C227.268 289.06 229.545 290.74 230.959 289.769C271.78 261.933 302.104 208.935 316.572 162.816C329.55 121.441 334.282 61.9444 305.321 25.5153C304.28 24.2071 302.476 25.566 302.967 26.984V26.9924Z" fill="#3A3A3A"/>
<path d="M250.963 60.5604C255.323 85.0884 304.415 108.528 323.937 88.3464C325.478 86.7596 324.038 84.1515 321.829 85.004C297.363 94.4742 265.126 85.0546 253.367 59.8092C252.758 58.5094 250.709 59.1255 250.963 60.5604Z" fill="#3A3A3A"/>
<path d="M236.724 200.596C224.703 224.364 216.059 249.88 206.874 274.838C199.89 293.813 187.699 315.876 185.439 336.066C185.253 337.745 187.572 338.522 188.512 337.171C200.051 320.552 204.707 295.399 211.64 276.535C220.834 251.517 230.662 226.728 239.67 201.651C240.364 199.71 237.604 198.866 236.724 200.605V200.596Z" fill="#3A3A3A"/>
<path d="M187.386 273.707C191.467 279.624 198.375 282.696 204.986 284.975C211.987 287.398 220.91 290.183 228.351 289.212C229.74 289.027 229.884 286.959 228.58 286.52C221.757 284.258 214.324 284.089 207.399 281.861C200.66 279.7 194.396 276.577 189.105 271.859C187.962 270.846 186.65 272.619 187.395 273.707H187.386Z" fill="#3A3A3A"/>
<path d="M262.434 126.835C232.576 104.771 203.496 165.83 240.042 179.579C253.223 184.542 266.929 177.258 273.177 165.306C281.312 149.751 274.489 131.992 259.852 123.197C258.006 122.091 256.203 124.615 257.922 125.94C269.003 134.473 276.953 146.087 271.763 160.478C267.945 171.054 257.321 179.419 245.689 177.638C209.058 172.033 229.765 110.604 261.198 128.616C262.392 129.299 263.585 127.687 262.442 126.843L262.434 126.835Z" fill="#3A3A3A"/>
<path d="M244.648 132.81C236.114 137.959 230.637 148.873 232 158.824C233.338 168.59 243.302 174.641 252.8 172.016C261.19 169.695 265.524 160.757 265.245 152.57C264.872 141.901 257.287 134.667 247.018 132.996C245.156 132.692 244.919 135.613 246.781 135.916C255.128 137.267 261.469 142.88 262.29 151.498C262.959 158.52 259.733 166.716 252.614 169.172C243.928 172.168 234.904 166.294 234.218 157.279C233.566 148.721 238.197 139.259 245.537 134.743C246.679 134.034 245.824 132.11 244.648 132.819V132.81Z" fill="#3A3A3A"/>
<path d="M244.097 139.909C243.429 139.285 242.768 138.66 242.1 138.035C242.887 138.584 243.666 139.133 244.453 139.681C244.936 138.491 245.427 137.301 245.909 136.111C246.629 134.355 244.207 133.393 243.115 134.676C241.295 136.82 239.526 139.014 238.273 141.547C237.427 143.252 240.296 144.737 241.278 143.091C242.633 140.812 245.206 139.141 247.34 137.613C246.595 136.71 245.841 135.807 245.096 134.904C238.874 139.622 234.421 145.961 229.977 152.291C228.707 154.098 231.018 155.938 232.694 154.798C239.204 150.358 246.256 146.83 252.394 141.834C254.383 140.213 252.343 137.023 250.015 138.061C244.521 140.517 241.101 145.927 236.817 150.021C235.031 151.726 236.783 155.11 239.238 153.87C244.893 151.017 249.219 146.324 254.256 142.585C253.257 141.386 252.267 140.179 251.268 138.981C247.501 142.112 243.082 144.037 238.646 146.028C239.484 147.362 240.322 148.687 241.16 150.021C244.842 146.13 246.586 140.871 250.252 137.006C248.94 136.525 247.619 136.043 246.307 135.554C246.679 137.639 241.541 142.222 240.474 144.433C239.484 146.476 242.057 148.24 243.843 147.506C247.128 146.155 253.681 145.395 255.357 141.808C255.848 140.753 255.221 139.58 254.426 138.913C254.349 138.846 254.273 138.787 254.197 138.719C253.443 138.086 251.852 138.103 251.149 138.837C247.882 142.256 245.985 146.636 242.734 150.046C240.872 152.004 242.607 155.727 245.443 154.351C249.93 152.182 253.681 149.295 257.346 145.944C255.966 144.982 254.586 144.02 253.206 143.057C251.539 146.619 248.948 149.599 247.281 153.169C247.958 152.595 248.643 152.021 249.329 151.447C249.812 151.591 250.303 151.734 250.785 151.878C251.115 152.899 251.437 153.92 251.767 154.942C252.064 153.785 253.494 152.502 254.256 151.616C254.637 151.169 255.492 150.485 255.704 149.962C256.322 148.434 257.16 150.367 254.959 149.675C254.366 148.763 253.782 147.852 253.19 146.948C253.291 145.699 252.639 147.041 251.852 147.911C251.336 148.476 250.684 148.991 250.32 149.675C249.659 150.916 249.642 152.528 250.98 153.397C253.884 155.279 259.031 151.363 261.554 150.215C260.605 148.713 259.657 147.21 258.718 145.708C253.672 149.658 250.387 155.245 245.35 159.187C242.963 161.053 245.46 165.163 248.212 163.728C251.344 162.099 253.918 160.116 257.499 159.457C258.735 159.229 259.581 158.217 259.742 157.001C259.75 156.917 259.767 156.841 259.776 156.756C260.03 154.84 258.227 153.768 256.584 153.861C253.139 154.038 248.804 160.799 247.424 163.526C246.603 165.155 248.212 167.011 249.778 167.163C252.275 167.4 253.96 166.471 255.077 164.226C256.313 161.753 252.656 159.516 250.743 161.204C249.973 161.88 248.855 162.943 247.738 162.825C248.525 164.04 249.312 165.256 250.108 166.48C250.565 165.281 251.014 164.074 251.471 162.876C251.92 161.686 251.395 160.462 250.455 159.702C249.008 158.537 247.484 157.963 245.596 158.174C244.013 158.352 241.964 160.225 240.516 160.09C241.363 161.078 242.201 162.074 243.048 163.061C243.2 159.719 246.299 157.643 246.468 154.055C246.561 151.979 244.495 150.451 242.54 151.312C241.863 151.895 241.126 152.013 240.339 151.658C240.618 153.245 240.897 154.823 241.177 156.41C241.236 156.36 241.295 156.309 241.355 156.267C240.432 156.182 239.518 156.098 238.595 156.022C238.332 155.296 237.943 154.461 237.545 153.633C237.452 155.6 235.361 158.183 234.379 159.888C233.592 161.247 233.786 162.766 235.065 163.77C241.482 168.801 246.713 156.005 236.453 154.418C234.049 154.047 232.542 157.246 234.057 158.993C236.521 161.829 238.569 164.969 241.033 167.796C242.074 168.995 243.75 169.088 245.003 168.168C251.031 163.745 256.855 158.605 259.911 151.65C258.133 151.017 256.356 150.392 254.578 149.759C253.317 153.051 252.038 156.056 249.558 158.664C247.526 160.808 249.422 164.944 252.538 163.399C257.71 160.841 259.683 157.634 261.706 152.334C259.886 151.945 258.057 151.549 256.237 151.16C255.958 155.634 255.001 159.567 253.444 163.737C252.165 167.138 257.346 168.936 258.751 165.619C260.538 161.399 263.458 157.862 265.312 153.692C263.543 153.068 261.782 152.435 260.013 151.81C258.87 154.84 257.829 157.82 256.94 160.934C256.068 164.007 260.224 165.416 261.579 162.58C262.976 159.66 264.169 156.714 265.312 153.692C266.599 150.282 261.469 148.544 260.013 151.81C258.159 155.971 255.238 159.508 253.444 163.737C255.213 164.361 256.982 164.994 258.751 165.619C260.478 161.019 261.545 156.537 261.858 151.625C262.062 148.442 257.532 147.446 256.39 150.451C254.984 154.131 253.85 156.469 250.176 158.284C251.166 159.862 252.165 161.441 253.156 163.019C256.381 159.626 258.244 156.014 259.911 151.658C261.223 148.24 256.026 146.467 254.578 149.768C251.962 155.718 246.527 160.073 241.414 163.846C242.734 163.973 244.064 164.1 245.384 164.218C242.912 161.39 240.855 158.259 238.383 155.431C237.587 156.959 236.792 158.478 235.987 160.006C236.741 159.744 237.503 159.483 238.256 159.221C238.485 160.512 238.713 161.804 238.942 163.104C240.559 160.301 245.232 154.342 241.769 151.498C241.016 150.882 239.865 150.882 239.01 151.253C238.476 151.481 238.053 151.802 237.604 152.165C235.962 153.507 236.453 156.208 238.442 156.917C240.889 157.786 242.489 157.406 244.826 156.368C243.513 155.456 242.21 154.536 240.897 153.625C240.754 156.967 237.655 159.052 237.503 162.631C237.435 164.125 238.493 165.467 240.034 165.602C242.049 165.788 245.672 162.943 247.264 164.209C246.925 163.154 246.586 162.099 246.248 161.036C245.799 162.243 245.342 163.441 244.893 164.648C244.258 166.336 245.528 168.117 247.255 168.303C249.922 168.581 252.267 167.155 254.205 165.433C252.758 164.429 251.319 163.416 249.871 162.411C249.981 162.184 250.083 161.964 250.193 161.736C250.98 162.952 251.767 164.159 252.546 165.374C253.206 164.057 254.493 162.774 255.458 161.686C255.975 161.103 256.703 160.538 257.135 159.896C257.837 158.866 258.743 159.17 257.482 159.238C256.415 158.276 255.357 157.305 254.29 156.343L254.256 156.588C255.001 155.769 255.755 154.95 256.5 154.131C252.461 154.883 249.456 156.976 245.892 158.841C246.849 160.352 247.797 161.871 248.754 163.382C253.799 159.415 257.067 153.827 262.095 149.869C264.508 147.97 262.019 144.112 259.259 145.362C256.686 146.526 254.112 147.936 251.446 148.856C252.335 148.932 253.215 149.016 254.104 149.092C254.231 150.274 254.442 151.506 254.663 152.747C255.704 150.789 258.286 149.852 258.472 147.396C258.557 146.256 257.829 145.016 256.703 144.67C252.834 143.471 247.518 149.936 246.705 153.186C246.392 154.444 246.722 155.414 247.687 156.25C248.974 157.356 250.54 156.731 251.683 155.87C253.088 154.807 253.892 152.089 254.857 150.536C256.034 148.62 257.168 146.881 258.108 144.838C259.183 142.5 255.805 140.238 253.968 141.952C250.633 145.049 247.382 147.7 243.259 149.734C244.165 151.169 245.071 152.604 245.968 154.038C249.211 150.586 251.082 146.18 254.315 142.754C253.3 142.796 252.284 142.838 251.268 142.872C251.344 142.939 251.42 142.998 251.496 143.057C251.183 142.095 250.878 141.125 250.565 140.162C250.938 139.344 247.314 140.99 246.578 141.251C244.952 141.842 243.319 142.382 241.719 143.049C242.845 144.07 243.962 145.1 245.088 146.121C246.883 142.365 251.911 139.386 251.048 134.752C250.743 133.14 248.406 131.908 247.103 133.3C243.429 137.217 241.719 142.483 238.07 146.383C236.343 148.231 237.926 151.591 240.584 150.375C245.367 148.189 250.159 146.012 254.205 142.61C256.525 140.66 253.613 137.2 251.217 139.006C246.544 142.517 242.506 147.058 237.266 149.734C238.07 151.017 238.883 152.3 239.687 153.583C243.573 149.827 246.874 144.425 251.835 142.171C251.039 140.914 250.252 139.656 249.456 138.398C243.683 143.885 236.741 147.438 230.248 151.954C231.153 152.789 232.059 153.625 232.965 154.461C237.173 148.358 241.363 142.247 247.272 137.647C249.067 136.246 246.84 133.613 245.029 134.938C242.658 136.676 239.915 138.584 238.417 141.167C239.416 141.682 240.423 142.197 241.422 142.711C242.489 140.492 244.148 138.466 245.647 136.516C244.715 136.035 243.784 135.562 242.853 135.081C242.43 136.297 242.006 137.504 241.575 138.719C241.058 140.179 242.76 141.167 243.928 140.365C244.995 139.622 245.774 138.922 245.816 137.563C245.833 137.006 245.503 136.28 244.893 136.136L244.605 136.069C243.937 135.917 243.463 136.069 243.014 136.575C242.286 137.385 242.277 137.639 241.778 138.787C241.211 140.086 243.344 141.226 244.038 139.951L244.097 139.909Z" fill="#3A3A3A"/>
<path d="M248.246 81.6532C248.119 81.5856 247.983 81.5181 247.856 81.459C248.203 81.7798 248.559 82.1005 248.906 82.4128L248.762 82.1005C247.323 78.9185 242.362 81.2058 243.835 84.3626C244.495 85.789 245.875 86.7259 247.467 86.5571C246.883 86.4305 246.298 86.2954 245.714 86.1688C246.578 86.785 247.568 87.3083 248.66 87.3589C249.6 87.4096 250.607 86.5402 250.337 85.5189C250.066 84.4723 249.499 83.6198 248.872 82.7504C249.05 83.3159 249.228 83.873 249.405 84.4385C249.49 83.873 249.38 83.3835 249.143 82.8686C248.381 81.2311 249.16 83.1978 248.974 83.7886C248.347 84.1937 247.721 84.5904 247.103 84.9956C247.238 85.0209 247.382 85.0547 247.518 85.08C249.659 85.5273 249.871 82.4634 248.254 81.6532H248.246Z" fill="#3A3A3A"/>
<path d="M266.04 94.6346C265.668 95.6896 265.287 96.7362 264.914 97.7913C266.599 98.188 268.309 95.7825 266.464 94.8034C265.846 94.4742 265.236 94.145 264.618 93.8158C261.494 92.1531 260.335 97.3102 263.323 97.403C263.865 97.5212 264.398 97.6309 264.94 97.7491C267.039 98.2893 267.937 95.5883 266.049 94.6346H266.04Z" fill="#3A3A3A"/>
<path d="M285.698 104.003C285.334 103.716 284.961 103.421 284.597 103.134C281.939 101.041 279.221 106.527 283.141 107.143C283.598 107.219 284.064 107.287 284.521 107.362C286.4 107.658 287.357 104.864 285.782 103.877C285.384 103.632 284.986 103.379 284.589 103.134C281.338 101.1 279.619 106.974 283.132 107.143C283.598 107.168 284.064 107.185 284.529 107.211C286.332 107.295 287.069 105.084 285.689 104.003H285.698Z" fill="#3A3A3A"/>
<path d="M300.707 112.334C301.046 112.486 302.671 113.389 301.782 112.798C305.634 115.381 308.462 108.249 303.662 107.608C304.686 107.743 302.874 107.321 302.536 107.211C299.158 106.156 297.516 110.916 300.707 112.334Z" fill="#3A3A3A"/>
<path d="M183.636 251.804C191.407 258.844 199.517 264.085 209.939 266.187C211.928 266.592 212.233 263.368 210.201 263.013C200.601 261.325 192.262 256.168 185.024 249.821C183.848 248.791 182.501 250.775 183.636 251.804Z" fill="#3A3A3A"/>
<path d="M187.166 256.666C187.412 258.143 185.845 259.46 185.456 260.802C185.295 261.333 185.422 262.093 185.964 262.397C188.648 263.891 192.305 261.047 194.463 259.899C193.913 259.029 193.371 258.16 192.821 257.291C190.391 259.747 188.063 262.304 185.71 264.828C184.465 266.161 185.6 268.525 187.513 267.681C190.84 266.212 194.142 264.676 197.511 263.309C196.868 262.287 196.224 261.266 195.581 260.245C192.178 263.359 188.851 266.01 184.66 268.044C182.501 269.09 184.025 272.407 186.218 271.42C191.196 269.192 196.131 266.811 201.202 264.811C200.296 263.984 199.382 263.157 198.476 262.321C197.164 265.165 195.259 267.326 192.499 268.795C190.197 270.019 191.848 273.665 194.201 272.483C197.122 271.015 201.854 266.28 205.088 266.98C205.029 265.706 204.969 264.431 204.918 263.148C200.474 265.309 196.766 268.179 193.126 271.496C191.128 273.319 193.718 276.493 195.818 274.745C199.602 271.597 204.038 269.664 208.491 267.672C207.729 266.465 206.967 265.258 206.214 264.051C203.031 266.963 199.856 269.867 196.673 272.779C195.31 274.028 195.886 276.56 197.9 276.678C201.702 276.906 204.157 273.04 207.162 271.344C206.239 270.238 205.308 269.132 204.385 268.027C202.48 271.048 198.764 272.078 199.467 276.231C199.627 277.202 200.516 278.029 201.515 278.088C205.342 278.316 207.771 274.442 210.802 272.737C209.761 271.791 208.728 270.846 207.687 269.901C206.637 272.07 204.935 274.011 203.42 275.876C204.775 276.577 206.129 277.269 207.484 277.97C208.88 274.298 210.269 270.618 211.674 266.946C210.209 266.423 208.745 265.908 207.28 265.385C206.146 268.466 204.961 271.538 203.793 274.61C204.783 274.138 205.782 273.665 206.772 273.201C202.751 271.352 200.745 267.276 196.021 267.208C194.125 267.183 193.177 268.803 193.71 270.5C195.86 277.354 201.481 277.075 207.661 277.716C209.194 277.877 210.209 275.547 208.736 274.737C204.91 272.635 199.433 273.294 197.943 268.559C197.172 269.656 196.402 270.753 195.632 271.85C198.823 271.893 202.218 276.214 205.198 277.59C206.358 278.122 207.763 277.269 208.178 276.18C209.338 273.108 210.531 270.036 211.666 266.955C212.698 264.144 208.339 262.591 207.272 265.393C205.875 269.065 204.504 272.753 203.124 276.434C202.176 278.957 205.604 280.493 207.187 278.527C208.974 276.307 210.76 274.028 211.987 271.445C212.808 269.715 210.531 267.664 208.872 268.609C207.136 269.597 203.682 273.699 201.871 273.606C202.557 274.222 203.234 274.847 203.92 275.463C203.691 274.146 207.331 271.766 208.059 270.61C209.134 268.879 207.357 266.102 205.282 267.292C203.522 268.297 200.093 272.399 198.256 272.306L199.484 276.206C202.641 273.268 205.799 270.331 208.957 267.394C210.7 265.773 208.982 262.718 206.679 263.773C201.913 265.95 197.147 268.12 193.117 271.513C194.015 272.593 194.912 273.682 195.809 274.762C199.187 271.648 202.48 268.972 206.637 266.93C208.643 265.942 207.881 263.393 205.943 262.988C200.914 261.933 196.58 266.727 192.491 268.812C193.058 270.044 193.625 271.268 194.193 272.5C197.951 270.475 200.499 267.537 202.252 263.68C202.963 262.11 200.999 260.439 199.526 261.19C194.675 263.672 189.621 265.799 184.66 268.052C185.177 269.175 185.701 270.306 186.218 271.428C190.637 269.259 194.311 266.389 197.917 263.064C199.382 261.713 197.917 259.038 195.987 260C192.728 261.62 189.392 263.081 186.091 264.6C186.794 265.444 187.496 266.28 188.199 267.124C190.51 264.558 192.855 262.017 195.09 259.384C196.063 258.236 194.472 256.303 193.16 257.08C192.313 257.577 188.275 260.498 187.225 259.966C187.505 260.557 187.784 261.139 188.063 261.73C188.571 259.654 190.129 258.548 189.621 256.235C189.274 254.674 186.904 255.079 187.166 256.666Z" fill="#3A3A3A"/>
<path d="M208.88 265.579C216.482 273.226 227.2 275.311 237.672 275.066C240.33 275.007 240.745 270.897 238.019 270.897C227.996 270.897 219.175 269.419 210.954 263.351C209.591 262.346 207.644 264.338 208.889 265.588L208.88 265.579Z" fill="#3A3A3A"/>
<path d="M205.858 276.923C212.233 277.547 218.167 279.902 224.059 282.274C224.339 280.991 224.618 279.708 224.889 278.417C220.165 278.586 215.585 277.421 210.904 276.982C208.305 276.737 207.56 280.468 209.956 281.379C213.562 282.755 217.16 284.131 220.766 285.507C221.291 284.038 221.816 282.578 222.332 281.109C218.726 279.733 215.128 278.349 211.522 276.965C211.183 278.527 210.853 280.08 210.514 281.641C217.422 282.35 222.485 280.054 228.995 278.088C231.712 277.269 231.594 273.766 228.766 273.209C225.498 272.559 219.767 271.783 217.727 270.998C217.168 272.559 216.618 274.112 216.059 275.674C218.954 276.678 225.719 280.181 228.58 277.826C234.861 272.66 219.208 271.394 217.896 271.031C214.806 270.187 213.079 274.787 216.203 275.766C220.571 277.134 225.16 277.286 229.52 278.729C229.452 277.168 229.376 275.606 229.308 274.045C225.761 275.961 222.874 278.645 219.911 281.354C217.829 283.262 219.886 286.866 222.603 285.633C228.317 283.034 233.202 280.265 237.435 275.564C239.357 273.428 235.81 270.204 233.719 272.137C230.552 275.066 227.386 277.986 224.212 280.907C222.442 282.536 223.653 285.954 226.286 285.38C230.933 284.359 233.583 281.177 237.537 278.898C236.639 277.471 235.742 276.045 234.844 274.619C231.678 277.547 228.504 280.468 225.338 283.388C226.37 283.346 227.403 283.304 228.428 283.262C217.744 277.1 206.112 270.626 193.346 272.483C191.314 272.779 190.476 275.851 192.355 276.957C201.549 282.342 212.859 284.815 223.255 281.624C225.151 281.042 225.524 277.691 223.077 277.75C212.961 277.995 204.233 278.24 195.208 272.888C194.878 274.382 194.548 275.868 194.218 277.362C205.511 275.783 216.093 282.004 225.507 287.423C226.447 287.963 227.733 288.098 228.597 287.296C231.771 284.376 234.938 281.447 238.104 278.527C240.102 276.678 238.045 272.728 235.412 274.247C232.017 276.205 229.35 279.472 225.405 280.341C226.099 281.835 226.785 283.321 227.479 284.815C230.646 281.894 233.82 278.974 236.986 276.045L233.27 272.618C229.706 276.577 225.261 278.813 220.487 280.983C221.384 282.409 222.281 283.836 223.179 285.262C225.769 282.882 228.326 280.324 231.441 278.628C233.295 277.623 233.456 274.678 231.23 273.943C226.853 272.5 222.265 272.365 217.896 271.015C217.338 272.593 216.77 274.171 216.203 275.75C218.006 276.239 219.843 276.442 221.697 276.67C223.924 276.948 224.212 277.564 225.405 275.243C227.005 272.146 226.176 274.112 224.567 273.141C222.739 272.036 219.801 271.698 217.727 270.981C214.705 269.943 213.062 274.517 216.059 275.657C219.835 277.092 224.398 277.328 228.368 278.104C228.292 276.475 228.216 274.855 228.14 273.226C222.239 275.024 217.194 277.379 210.912 276.822C208.169 276.577 207.331 280.552 209.905 281.498C213.52 282.831 217.143 284.156 220.766 285.498C223.585 286.537 225.168 282.147 222.332 281.101C218.717 279.767 215.094 278.425 211.479 277.092C211.166 278.56 210.844 280.029 210.531 281.489C215.399 281.633 220.199 282.688 225.075 282.333C227.132 282.181 227.166 279.117 225.397 278.501C219.039 276.281 212.893 274.137 206.112 273.859C204.157 273.783 203.894 276.703 205.858 276.898V276.923Z" fill="#3A3A3A"/>
<path d="M183.153 240.013C197.503 259.266 223.06 265.301 246.011 264.33C249.752 264.17 249.566 258.987 245.774 259.173C224.051 260.194 200.787 254.674 186.463 237.295C184.694 235.151 181.519 237.827 183.153 240.022V240.013Z" fill="#3A3A3A"/>
<path d="M244.284 262.76C247.314 262.785 249.626 264.262 252.69 264.034C254.917 263.866 254.84 260.692 253.029 259.974C243.75 256.311 230.519 267.157 223.712 272.804C222.044 274.188 223.763 277.083 225.769 276.07C230.265 273.817 234.489 271.124 239.001 268.896C241.312 267.757 240.169 264.439 237.689 264.718C232.119 265.326 226.734 266.271 221.088 266.313C221.164 267.866 221.232 269.428 221.308 270.981C225.278 270.044 228.301 268.322 231.865 266.381C233.939 265.25 233.592 261.975 231.043 261.755C217.668 260.582 203.996 260.878 192.398 253.146C191.594 254.708 190.781 256.269 189.977 257.831C196.588 260.346 203.2 262.87 209.812 265.385C212.732 266.499 214.84 262.329 212.317 260.548C206.112 256.185 200.169 252.074 193.168 249.095C189.858 247.685 188.004 252.927 191.297 254.345C195.818 256.303 200.118 258.801 204.377 261.266C205.232 259.612 206.087 257.957 206.942 256.303C199.856 253.602 193.058 250.758 186.65 246.655C183.551 244.672 180.368 249.154 183.357 251.34C187.649 254.488 192.432 256.894 196.427 260.413C197.545 258.827 198.654 257.24 199.763 255.661C196.842 254.032 194.336 252.074 191.424 250.445C188.749 248.951 185.067 252.091 187.479 254.708C199.399 267.638 216.364 270.036 233.177 267.757C232.838 265.815 232.491 263.882 232.152 261.941C228.436 262.54 224.787 263.351 221.071 263.958C217.676 264.515 218.066 269.377 221.342 269.799C230.705 270.998 239.67 270.247 248.195 266.035C250.328 264.98 249.253 261.992 246.993 262.203C238.29 263.013 230.688 265.064 221.816 263.925C221.909 265.874 221.994 267.816 222.087 269.765C225.803 269.166 229.452 268.356 233.168 267.757C236.952 267.149 235.911 261.435 232.144 261.941C217.634 263.891 202.463 262.203 192 250.969C190.688 252.387 189.367 253.813 188.055 255.231C190.976 256.843 193.498 258.793 196.427 260.405C199.721 262.22 202.599 258.118 199.763 255.653C195.759 252.159 190.95 249.762 186.65 246.647C185.549 248.208 184.457 249.77 183.357 251.331C190.239 255.695 197.426 258.725 205.045 261.603C207.949 262.701 210.43 258.261 207.611 256.64C202.904 253.94 198.154 251.222 193.16 249.078L191.289 254.328C197.824 257.079 203.378 260.996 209.151 265.022C209.989 263.41 210.819 261.798 211.657 260.186C205.029 257.721 198.392 255.256 191.763 252.8C188.978 251.762 186.802 255.822 189.342 257.485C201.879 265.689 216.135 265.739 230.646 266.583C230.375 265.039 230.104 263.494 229.824 261.958C226.658 263.747 224.195 265.41 220.478 266.33C218.049 266.929 217.846 271.057 220.698 270.998C226.718 270.88 232.516 269.968 238.459 269.056C238.019 267.664 237.587 266.271 237.147 264.878C232.72 267.292 228.58 270.145 224.136 272.525C224.821 273.614 225.507 274.703 226.193 275.792C232.203 270.685 243.708 261.106 251.606 263.933C251.717 262.583 251.835 261.232 251.945 259.873C249.135 260.177 246.95 258.81 244.114 259.358C242.269 259.713 242.26 262.726 244.275 262.743L244.284 262.76Z" fill="#3A3A3A"/>
<path d="M186.159 244.351C200.212 257.493 223.89 267.444 243.344 266.263C244.944 266.161 245.156 263.494 243.607 263.123C234.083 260.844 224.491 259.89 215.17 256.573C205.401 253.104 196.453 248.192 187.725 242.655C186.684 241.988 185.151 243.406 186.159 244.351Z" fill="#3A3A3A"/>
<path d="M243.293 266.06C239.111 269.504 234.413 271.943 230.739 276.02C229.528 277.362 231.45 279.354 232.931 278.636C235.471 277.413 237.774 275.691 240.119 274.138C241.685 273.099 244.732 271.876 245.663 270.112C246.434 268.643 245.841 266.896 244.038 266.668C242.167 266.423 239.763 268.913 238.468 269.867C236.554 271.268 233.211 272.964 232.22 275.26C231.644 276.585 232.779 278.13 234.142 278.223C234.684 278.265 235.115 278.122 235.615 277.936C237.266 277.311 237.24 275.032 235.962 274.087C229.35 269.166 220.267 269.259 212.402 268.592C211.335 268.499 210.887 270.221 211.996 270.483C219.073 272.196 227.412 273.302 233.405 277.733C233.524 276.45 233.634 275.167 233.752 273.884C234.006 273.851 234.26 273.817 234.514 273.783C235.158 274.771 235.793 275.758 236.436 276.746C236.047 277.657 237.536 276.121 237.96 275.792C238.95 275.015 239.958 274.273 240.965 273.53C241.786 272.922 242.692 272.365 243.462 271.698C244.715 270.626 245.325 271.099 243.683 271.04C243.048 270.069 242.421 269.09 241.786 268.12C242.108 267.335 240.863 268.744 240.525 269.023C239.475 269.884 238.434 270.753 237.342 271.555C235.471 272.931 233.524 274.366 231.45 275.429C232.178 276.298 232.906 277.176 233.642 278.046C236.995 274.146 241.287 271.605 245.079 268.212C246.417 267.014 244.69 264.912 243.293 266.06Z" fill="#3A3A3A"/>
<path d="M196.876 264.153C194.252 264.313 191.628 265.537 191.221 268.423C190.823 271.285 192.957 274.501 195.776 275.193C196.986 275.488 198.121 274.433 197.604 273.201C196.715 271.091 193.6 268.508 197.494 267.698C199.831 267.217 199.145 264.009 196.868 264.153H196.876Z" fill="#3A3A3A"/>
<path d="M182.036 270.23C169.761 291.17 159.72 313.175 156.41 337.39C156.25 338.564 157.748 339.239 158.611 338.538C161.532 336.141 164.52 333.964 167.34 331.457C168.499 330.427 167.035 328.68 165.807 329.608C160.601 333.559 160.305 335.947 160.372 329.304C160.449 322.501 164.334 313.647 166.671 307.317C171.268 294.859 177.346 283.068 183.848 271.504C184.533 270.28 182.755 268.997 182.036 270.238V270.23Z" fill="#3A3A3A"/>
<path d="M165.536 330.157C153.922 358.348 152.347 390.034 156.029 419.997C156.283 422.048 159.45 421.483 159.196 419.44C155.403 389.012 158.544 360.121 167.619 330.9C168.042 329.541 166.078 328.84 165.528 330.157H165.536Z" fill="#3A3A3A"/>
<path d="M160.322 415.119C172.182 403.429 180.885 388.768 188.69 374.183C189.537 372.596 187.225 370.95 186.362 372.553C178.531 387.164 169.617 401.108 158.815 413.726C158.061 414.604 159.492 415.937 160.33 415.119H160.322Z" fill="#3A3A3A"/>
<path d="M186.455 374.242C189.596 378.217 190.036 383.341 191.509 388.008C191.839 389.055 193.431 388.624 193.507 387.654C193.922 382.691 192.034 376.2 188.571 372.495C187.369 371.212 185.346 372.849 186.446 374.242H186.455Z" fill="#3A3A3A"/>
<path d="M194.099 386.438C210.811 357.049 228.258 325.355 234.125 291.77C234.37 290.36 232.009 289.829 231.636 291.238C222.713 325.076 206.654 353.875 192.042 385.383C191.501 386.556 193.448 387.586 194.099 386.438Z" fill="#3A3A3A"/>
<path d="M94.2895 251.914C111.661 214.818 144.448 178.457 186.87 171.738C190.137 171.223 189.24 166.176 185.981 166.699C144.838 173.316 105.625 212.717 92.2493 251.188C91.7837 252.522 93.7138 253.155 94.2895 251.914Z" fill="#3A3A3A"/>
<path d="M93.1298 253.231C101.096 253.855 109.689 253.669 117.646 253.011C119.881 252.825 119.686 249.213 117.469 249.12C109.494 248.791 100.91 248.977 92.9774 249.897C91.0472 250.124 91.242 253.087 93.1298 253.239V253.231Z" fill="#3A3A3A"/>
<path d="M116.012 253.29C125.849 248.487 135.559 243.71 145.938 240.148C158.645 235.784 169.244 235.084 182.408 235.388C184.025 235.43 185.033 233.261 183.534 232.281C175.085 226.761 160.618 231.1 151.847 233.708C138.937 237.548 125.451 242.959 114.429 250.783C113.041 251.77 114.497 254.016 116.004 253.281L116.012 253.29Z" fill="#3A3A3A"/>
<path d="M313.55 330.199C329.101 291.635 325.749 235.826 298.777 202.993C296.686 200.444 292.724 203.71 294.824 206.251C322.625 239.869 323.234 289.457 311.501 329.473C311.111 330.807 313.025 331.499 313.541 330.199H313.55Z" fill="#3A3A3A"/>
<path d="M313.829 328.764C308.292 322.763 301.909 316.99 295.619 311.782C293.926 310.381 291.403 313.073 292.97 314.643C298.743 320.425 305.067 326.257 311.552 331.22C313.05 332.368 315.124 330.174 313.82 328.764H313.829Z" fill="#3A3A3A"/>
<path d="M296.847 315.074C292.682 297.881 280.161 265.765 260.182 261.663C258.413 261.3 257.812 263.84 259.056 264.769C277.215 278.231 285.613 295.399 294.019 315.96C294.654 317.505 297.245 316.737 296.847 315.082V315.074Z" fill="#3A3A3A"/>
<path d="M190.942 273.699C192.483 263.967 191.467 253.687 189.443 244.098C188.14 244.326 186.844 244.554 185.549 244.782C186.861 250.251 184.406 256.227 185.498 261.984C186.523 267.394 188.546 272.197 191.865 276.586C192.821 275.218 193.786 273.851 194.743 272.492C192.398 271.479 190.053 270.466 187.708 269.462C185.363 268.458 183.069 271.732 184.813 273.581C189.511 278.569 196.665 282.342 203.412 279.211C204.546 278.687 204.699 276.594 203.285 276.282C197.68 275.066 193.067 274.72 188.851 270.255C187.886 271.631 186.921 272.999 185.956 274.374C188.301 275.379 190.654 276.383 192.999 277.379C195.454 278.417 197.384 275.193 195.877 273.285C191.729 268.027 189.012 262.262 189.096 255.459C189.147 251.602 190.569 247.897 189.452 244.107C188.749 241.718 184.931 242.292 185.558 244.79C187.937 254.37 188.411 263.663 188.512 273.505C188.529 275.066 190.705 275.277 190.95 273.708L190.942 273.699Z" fill="#3A3A3A"/>
<path d="M214.011 274.543C213.452 273.69 213.189 272.753 213.41 271.741C212.08 271.977 210.76 272.205 209.431 272.441C210.523 273.538 210.98 274.534 211.056 276.079C211.192 278.78 214.781 278.307 215.695 276.467C217.084 273.69 216.889 270.365 215.391 267.647C214.205 265.495 210.353 265.672 210.294 268.542C210.201 273.277 211.615 277.624 214.485 281.396C215.264 279.902 216.051 278.408 216.83 276.915C214.527 276.653 212.233 276.383 209.93 276.121C207.475 275.834 206.18 278.814 207.577 280.628C209.033 282.519 210.895 283.853 213.13 284.697C216.567 285.996 218.066 281.059 214.993 279.48C214.603 279.286 214.231 278.729 214.349 278.282C214.713 276.855 213.164 275.556 211.903 276.568C208.889 278.991 209.947 283.076 213.139 284.688C213.757 282.949 214.375 281.211 215.001 279.472C213.655 278.966 212.724 278.231 211.852 277.1C211.065 278.603 210.277 280.105 209.498 281.607C211.801 281.861 214.104 282.122 216.398 282.375C218.845 282.646 220.131 279.7 218.743 277.894C216.77 275.328 215.661 272.213 215.636 268.972C214.061 269.462 212.487 269.96 210.912 270.458C211.86 271.791 211.767 273.395 211.166 274.855C212.715 274.982 214.256 275.117 215.805 275.243C215.602 272.728 214.409 270.719 212.555 269.065C211.31 267.951 208.838 269.099 208.906 270.77C209.007 273.074 209.634 275.117 211.115 276.923C212.682 278.839 215.297 276.501 214.011 274.534V274.543Z" fill="#3A3A3A"/>
<path d="M183.611 241.355C183.738 246.36 187.556 252.362 191.788 255.029C193.465 256.084 195.496 254.759 195.268 252.817C194.87 249.45 193.515 247.171 190.764 245.204C188.512 243.592 185.896 246.58 187.522 248.698C191.094 253.349 196.8 259.308 203.056 259.494C204.377 259.536 205.443 257.924 204.445 256.835C202.692 254.911 200.576 253.872 198.459 252.395C195.725 250.488 193.405 248.158 191.23 245.643C190.146 246.808 189.071 247.972 187.987 249.137C189.765 250.04 190.722 251.526 190.866 253.594C192.025 252.86 193.185 252.125 194.345 251.382C190.011 248.724 189.63 243.313 185.803 240.325C185.024 239.718 183.577 240.3 183.602 241.355H183.611Z" fill="#3A3A3A"/>
<path d="M236.927 270.601C238.536 270.146 240.127 269.935 241.803 270.044C243.319 270.146 244.809 270.517 246.332 270.39C247.348 270.306 247.966 268.77 247.196 268.052C244.402 265.436 239.678 265.824 236.275 266.888C234.006 267.597 234.565 271.26 236.927 270.593V270.601Z" fill="#3A3A3A"/>
<path d="M264.525 264.735C270.155 259.401 276.487 253.746 280.898 247.331C281.49 246.461 280.33 245.322 279.509 246.048C273.676 251.222 268.699 257.62 263.34 263.3C262.544 264.153 263.645 265.571 264.534 264.735H264.525Z" fill="#3A3A3A"/>
<path d="M283.911 242.807C291.488 233.505 298.294 223.402 302.942 212.294C303.509 210.927 301.3 209.737 300.58 211.079C294.959 221.63 289.295 231.935 282.269 241.659C281.507 242.714 283.107 243.794 283.911 242.807Z" fill="#3A3A3A"/>
<path d="M268.462 268.609C278.459 259.924 288.034 249.264 295.34 238.249C296.076 237.135 294.502 236.088 293.655 237.076C284.961 247.264 276.292 257.232 267.149 267.031C266.277 267.96 267.429 269.504 268.462 268.609Z" fill="#3A3A3A"/>
<path d="M298.295 233.261C301.698 229.201 304.923 224.829 307.285 220.068C307.928 218.768 305.804 217.713 305.025 218.903C302.163 223.259 299.539 227.766 296.576 232.062C295.797 233.185 297.44 234.282 298.295 233.261Z" fill="#3A3A3A"/>
<path d="M274.049 272.408C276.995 271.057 279.264 269.074 280.703 266.162C281.168 265.216 279.831 264.516 279.12 265.056C276.919 266.719 274.878 268.593 272.754 270.357C271.695 271.243 272.779 272.99 274.049 272.408Z" fill="#3A3A3A"/>
<path d="M282.421 263.57C293.401 253.611 303.348 241.794 310.976 229.091C311.653 227.96 310.011 226.778 309.274 227.901C301.046 240.503 292.055 251.577 281.101 261.975C280.144 262.887 281.431 264.474 282.421 263.57Z" fill="#3A3A3A"/>
<path d="M279.594 275.159C282.616 272.762 286.163 270.415 288.601 267.411C289.177 266.71 288.237 265.545 287.433 266.018C284.089 267.976 281.236 271.108 278.409 273.724C277.528 274.534 278.654 275.91 279.594 275.159Z" fill="#3A3A3A"/>
<path d="M297.016 258.042C300.944 253.805 305.135 249.635 308.614 245.018C309.181 244.267 308.081 243.212 307.378 243.879C303.179 247.863 299.497 252.471 295.729 256.852C295.086 257.603 296.339 258.768 297.016 258.042Z" fill="#3A3A3A"/>
<path d="M281.753 282.688C288.178 279.16 295.205 274.247 299.141 267.942C299.691 267.064 298.574 265.874 297.736 266.642C292.081 271.808 287.331 276.94 280.737 281.067C279.814 281.65 280.805 283.211 281.761 282.688H281.753Z" fill="#3A3A3A"/>
<path d="M284.377 287.575C286.163 288.233 287.89 287.6 288.822 285.937C289.406 284.899 288.314 283.946 287.323 284.562C286.629 285.001 285.698 285.186 284.885 285.212C283.573 285.254 282.98 287.069 284.377 287.575Z" fill="#3A3A3A"/>
<path d="M294.332 282.975C296.195 281.093 298.218 279.295 299.784 277.168C300.428 276.299 299.234 275.26 298.413 275.902C296.398 277.472 294.713 279.472 292.953 281.312C292.004 282.3 293.35 283.971 294.332 282.983V282.975Z" fill="#3A3A3A"/>
<path d="M288.254 294.226C290.278 293.272 292.563 292.42 294.121 290.766C294.849 289.997 294.434 288.461 293.173 288.723C290.828 289.221 288.855 290.766 286.883 292.057C285.647 292.876 286.951 294.842 288.246 294.226H288.254Z" fill="#3A3A3A"/>
<path d="M179.759 232.222C179.632 230.053 180.199 227.825 179.945 225.689C179.818 224.643 178.446 224.491 177.862 225.225C176.288 227.217 176.533 230.382 177.236 232.661C177.718 234.24 179.86 233.877 179.759 232.214V232.222Z" fill="#3A3A3A"/>
<path d="M179.623 220.532C179.987 212.387 180.885 204.369 181.9 196.283C182.899 188.29 185.084 180.229 185.473 172.211C185.532 170.97 183.737 170.523 183.306 171.747C177.998 186.703 178.192 204.673 177.558 220.372C177.507 221.697 179.564 221.874 179.623 220.541V220.532Z" fill="#3A3A3A"/>
<path d="M170.946 230.729C171.191 226.947 171.454 223.149 171.877 219.385C172.3 215.629 173.291 211.889 173.477 208.133C173.536 206.985 171.911 206.606 171.488 207.703C168.855 214.59 168.694 223.284 168.973 230.568C169.024 231.8 170.861 232.037 170.946 230.729Z" fill="#3A3A3A"/>
<path d="M173.401 201.575C175.069 192.747 177.16 183.099 177.321 174.118C177.338 173.139 175.831 172.675 175.534 173.739C173.096 182.5 172.334 192.367 171.403 201.415C171.268 202.723 173.172 202.816 173.401 201.575Z" fill="#3A3A3A"/>
<path d="M164.385 231.809C165.037 227.774 165.663 223.242 164.927 219.182C164.757 218.228 163.293 218.042 162.997 219.022C161.778 222.963 161.854 227.521 162.023 231.615C162.082 233.117 164.148 233.345 164.393 231.809H164.385Z" fill="#3A3A3A"/>
<path d="M165.172 215.384C166.451 208.108 168.186 200.47 168.398 193.076C168.423 192.046 166.823 191.565 166.518 192.671C164.546 199.904 163.97 207.771 163.073 215.207C162.912 216.557 164.935 216.684 165.164 215.376L165.172 215.384Z" fill="#3A3A3A"/>
<path d="M156.588 231.454C156.783 228.753 156.901 226.035 157.265 223.351C157.621 220.684 158.561 218.042 158.747 215.384C158.806 214.523 157.528 213.932 157.054 214.776C154.455 219.393 154.116 226.407 154.743 231.547C154.87 232.602 156.512 232.509 156.588 231.463V231.454Z" fill="#3A3A3A"/>
<path d="M256.559 61.1935C272.584 78.5218 295.188 87.0045 318.654 83.6789C321.016 83.3413 320.373 79.6782 318.011 80.0411C295.45 83.4848 273.668 76.6396 257.727 60.2313C257.058 59.5392 255.89 60.4761 256.559 61.1935Z" fill="#3A3A3A"/>
<path d="M261.96 55.538C275.666 70.8997 299.691 76.6898 319.569 74.8498C321.668 74.6557 321.076 71.4652 319.002 71.6424C298.049 73.4487 279.586 66.9664 263.272 54.1116C262.409 53.4279 261.224 54.7109 261.952 55.538H261.96Z" fill="#3A3A3A"/>
<path d="M267.666 50.4234C278.502 63.2698 300.047 68.9671 316.225 65.9201C317.749 65.6331 317.757 63.0419 316.098 63.1094C307.471 63.4639 299.48 63.4217 291.124 60.8473C282.819 58.2983 276.225 53.5463 268.978 49.0138C268.081 48.4483 266.946 49.554 267.674 50.4234H267.666Z" fill="#3A3A3A"/>
<path d="M273.414 45.2493C283.937 56.2303 302.282 64.1813 317.461 58.543C318.714 58.0788 317.943 56.4414 316.817 56.492C300.716 57.3107 287.052 55.9096 274.819 44.093C273.998 43.2996 272.601 44.3968 273.414 45.2493Z" fill="#3A3A3A"/>
<path d="M277.604 40.6576C287.01 49.1318 302.663 55.5381 315.454 52.3307C316.682 52.0269 316.716 50.1531 315.344 50.0518C308.665 49.5454 302.595 49.8999 296.026 47.9501C289.727 46.0763 284.004 42.9196 278.68 39.113C277.664 38.3871 276.724 39.8642 277.596 40.6576H277.604Z" fill="#3A3A3A"/>
<path d="M286.891 36.8934C291.979 43.0296 303.027 46.5239 310.756 44.4729C312.127 44.11 312.263 41.8648 310.629 41.8226C306.54 41.7129 302.84 41.9576 298.819 40.8097C294.883 39.6872 291.666 37.518 288.178 35.5007C287.281 34.9858 286.172 36.0156 286.891 36.8934Z" fill="#3A3A3A"/>
<path d="M292.86 32.2425C295.518 36.9354 304 38.6825 308.86 37.3067C309.935 37.0029 310.062 35.2557 308.758 35.2135C306.032 35.1207 303.408 35.0869 300.775 34.2682C298.32 33.5085 296.424 31.7698 294.062 30.9342C293.325 30.6725 292.436 31.4997 292.86 32.2425Z" fill="#3A3A3A"/>
<path d="M297.744 28.7146C299.937 30.7487 303.653 32.057 306.388 30.3183C307.116 29.854 306.591 28.7821 305.88 28.6977C304.771 28.5542 303.662 28.7146 302.553 28.5289C301.351 28.3179 300.225 27.7946 299.192 27.1615C298.227 26.5707 296.813 27.8537 297.753 28.723L297.744 28.7146Z" fill="#3A3A3A"/>
<path d="M303.713 26.8321C304.838 22.7385 305.888 18.7293 307.522 14.796C308.589 12.247 304.508 10.7868 303.459 13.3527C301.808 17.3873 300.335 21.6413 299.691 25.9628C299.344 28.2586 303.095 29.1026 303.713 26.8237V26.8321Z" fill="#3A3A3A"/>
<path d="M314.718 4.12735C316.927 8.02684 315.539 12.973 311.628 15.1759C307.717 17.3789 302.756 15.9946 300.546 12.0951C298.337 8.19565 299.725 3.24954 303.636 1.04658C307.547 -1.15638 312.508 0.227857 314.718 4.12735Z" fill="#3A3A3A"/>
<path d="M142.501 519.78C160.533 521.646 181.155 519.223 194.785 506.132C195.538 505.406 194.573 504.267 193.727 504.891C178.523 516.202 161.413 519.62 142.662 518.059C141.545 517.966 141.384 519.671 142.501 519.78Z" fill="#3A3A3A"/>
<path d="M167.102 508.656C173.384 508.412 179.395 504.715 184.787 501.794C185.744 501.271 185.075 499.87 184.059 500.267C178.497 502.461 173.172 506.521 167.035 506.833C166.01 506.884 166.07 508.69 167.111 508.648L167.102 508.656Z" fill="#3A3A3A"/>
<path d="M237.816 506.192C254.375 507.204 270.358 499.127 276.58 483.225C276.876 482.465 275.75 482.086 275.412 482.795C268.208 497.886 254.671 505.761 237.926 505.103C237.223 505.077 237.113 506.149 237.824 506.192H237.816Z" fill="#3A3A3A"/>
<path d="M254.087 495.497C261.545 494.24 268.216 487.538 270.612 480.524C270.798 479.984 270.002 479.511 269.689 480.043C265.854 486.601 261.697 492.467 253.901 494.493C253.274 494.653 253.418 495.607 254.078 495.497H254.087Z" fill="#3A3A3A"/>
<path d="M32.9561 481.579C34.5138 492.552 43.9868 500.207 54.3742 502.655C55.1445 502.841 55.6101 501.727 54.8144 501.473C44.5032 498.19 36.5625 492.332 34.1328 481.377C33.9635 480.625 32.846 480.82 32.9561 481.588V481.579Z" fill="#3A3A3A"/>
<path d="M42.7086 484.677C44.9774 488.948 48.3636 492.83 52.6388 495.177C53.2652 495.523 53.9086 494.679 53.2906 494.248C49.4388 491.522 46.2049 488.23 43.8006 484.162C43.4112 483.504 42.3361 483.985 42.7086 484.677Z" fill="#3A3A3A"/>
<path d="M113.456 369.532C117.816 362.391 124.656 357.69 132.901 356.322C133.392 356.238 133.299 355.478 132.817 355.47C124.495 355.343 116.622 362.281 112.719 369.084C112.44 369.566 113.168 370.004 113.464 369.532H113.456Z" fill="#3A3A3A"/>
<path d="M127.229 365.683C126.941 364.535 127.822 364.004 128.55 363.345C128.812 363.109 128.635 362.586 128.262 362.602C126.764 362.695 125.883 364.594 126.213 365.92C126.374 366.569 127.39 366.333 127.229 365.675V365.683Z" fill="#3A3A3A"/>
<path d="M231.391 377.061C241.473 380.513 247.636 387.721 251.463 397.419C251.877 398.474 253.427 397.715 253.046 396.668C249.346 386.556 242.32 378.943 231.865 375.795C231.035 375.55 230.569 376.774 231.399 377.061H231.391Z" fill="#3A3A3A"/>
<path d="M234.988 388.607C239.264 390.667 241.465 394.043 243.666 398.061C244.013 398.702 245.147 398.432 244.952 397.647C243.81 392.98 239.738 389.19 235.496 387.223C234.633 386.818 234.142 388.194 234.988 388.599V388.607Z" fill="#3A3A3A"/>
</g>
<defs>
<clipPath id="clip0_16_2557">
<rect width="329" height="541" fill="white" transform="translate(0.346436)"/>
</clipPath>
</defs>
</svg>
